<?xml version="1.0" encoding="UTF-8"?>
<svg version="1.1" xmlns="http://www.w3.org/2000/svg" width="512" height="512">
<path d="M0 0 C1.01790619 0.00215515 2.03581238 0.0043103 3.08456421 0.00653076 C17.69363523 0.05620146 32.02575853 0.30709809 46.375 3.3125 C47.34985352 3.51117676 48.32470703 3.70985352 49.32910156 3.91455078 C97.7109774 14.03517194 141.69928269 35.9516877 177.375 70.3125 C178.3640332 71.26068604 178.3640332 71.26068604 179.37304688 72.22802734 C188.86130305 81.37247479 197.6012044 90.66984009 205.375 101.3125 C206.23306152 102.46355017 207.09113451 103.61459177 207.94921875 104.765625 C213.98736829 112.95680614 219.34595521 121.47054105 224.375 130.3125 C224.73948242 130.94430176 225.10396484 131.57610352 225.47949219 132.22705078 C247.08534998 169.97532572 256.85198095 212.74189997 256.6875 255.9375 C256.68534485 256.95540619 256.6831897 257.97331238 256.68096924 259.02206421 C256.63129854 273.63113523 256.38040191 287.96325853 253.375 302.3125 C253.07698486 303.77478027 253.07698486 303.77478027 252.77294922 305.26660156 C242.65232806 353.6484774 220.7358123 397.63678269 186.375 433.3125 C185.74287598 433.97185547 185.11075195 434.63121094 184.45947266 435.31054688 C175.31502521 444.79880305 166.01765991 453.5387044 155.375 461.3125 C154.22394983 462.17056152 153.07290823 463.02863451 151.921875 463.88671875 C143.73224019 469.92427396 135.22961724 475.30707302 126.375 480.3125 C125.66778809 480.7146875 124.96057617 481.116875 124.23193359 481.53125 C101.09654164 494.5566741 75.92537591 503.30551461 49.9375 508.625 C49.21860596 508.77235596 48.49971191 508.91971191 47.7590332 509.0715332 C33.08339502 511.86090125 18.55831162 512.66142619 3.64770508 512.62817383 C0.70811513 512.6250221 -2.2304558 512.64854926 -5.16992188 512.67382812 C-18.54306192 512.71848737 -31.43916711 511.51301542 -44.625 509.3125 C-46.33055054 509.03031616 -46.33055054 509.03031616 -48.07055664 508.74243164 C-91.33802759 500.97044532 -132.38793216 480.98345309 -165.625 452.3125 C-166.37007813 451.67828125 -167.11515625 451.0440625 -167.8828125 450.390625 C-181.38779833 438.57948485 -194.05918743 425.82889772 -204.625 411.3125 C-205.48149066 410.16255169 -206.33826433 409.01281411 -207.1953125 407.86328125 C-213.23534209 399.67315742 -218.61867614 391.16870382 -223.625 382.3125 C-224.0271875 381.60528809 -224.429375 380.89807617 -224.84375 380.16943359 C-237.8691741 357.03404164 -246.61801461 331.86287591 -251.9375 305.875 C-252.08485596 305.15610596 -252.23221191 304.43721191 -252.3840332 303.6965332 C-255.35789088 288.05024391 -255.99800362 272.57681954 -255.9375 256.6875 C-255.93534485 255.66959381 -255.9331897 254.65168762 -255.93096924 253.60293579 C-255.88129854 238.99386477 -255.63040191 224.66174147 -252.625 210.3125 C-252.42632324 209.33764648 -252.22764648 208.36279297 -252.02294922 207.35839844 C-241.90232806 158.9765226 -219.9858123 114.98821731 -185.625 79.3125 C-184.99287598 78.65314453 -184.36075195 77.99378906 -183.70947266 77.31445312 C-174.56502521 67.82619695 -165.26765991 59.0862956 -154.625 51.3125 C-153.47394983 50.45443848 -152.32290823 49.59636549 -151.171875 48.73828125 C-142.98224019 42.70072604 -134.47961724 37.31792698 -125.625 32.3125 C-124.91778809 31.9103125 -124.21057617 31.508125 -123.48193359 31.09375 C-100.34654164 18.0683259 -75.17537591 9.31948539 -49.1875 4 C-48.46860596 3.85264404 -47.74971191 3.70528809 -47.0090332 3.5534668 C-31.36274391 0.57960912 -15.88931954 -0.06050362 0 0 Z " fill="#48BC98" transform="translate(255.625,-0.3125)"/>
<path d="M0 0 C0.68006104 0.30752197 1.36012207 0.61504395 2.06079102 0.93188477 C23.26614695 10.76229826 37.46909946 27.04828203 45.73193359 48.73339844 C52.31689936 67.67806505 50.51081872 88.86651974 42.16796875 106.91015625 C38.38412883 114.59060267 33.72210996 121.43509728 28 127.8125 C27.48308594 128.42222656 26.96617187 129.03195312 26.43359375 129.66015625 C18.1147733 138.81294367 6.41443377 144.57674142 -5 148.8125 C-5.84046875 149.16183594 -6.6809375 149.51117188 -7.546875 149.87109375 C-23.59532095 156.02981266 -43.53860159 153.67995948 -59.125 147.5625 C-80.28181436 138.0784108 -96.36144988 122.83706564 -104.73535156 100.88476562 C-111.87845446 81.0647726 -111.09879423 59.82721899 -102.36621094 40.671875 C-92.35170373 19.99167095 -75.84797639 5.12520066 -54.1640625 -2.63671875 C-37.195268 -7.62239548 -16.19051094 -7.48133324 0 0 Z " fill="#49BC99" transform="translate(286,170.1875)"/>
<path d="M0 0 C2.75212524 1.97663707 2.75212524 1.97663707 5.37890625 1.18359375 C8.6097276 -0.72932787 11.826129 -2.65518231 15.0078125 -4.6484375 C38.1265314 -18.78533627 66.60779948 -22.47171493 93.08984375 -16.5 C112.14401538 -11.08444638 128.02799513 -1.23342964 141.9453125 12.6640625 C142.74710937 13.45425781 143.54890625 14.24445313 144.375 15.05859375 C154.26778789 25.37927039 161.0883539 38.30373565 165.9453125 51.6640625 C166.35910156 52.77910156 166.77289063 53.89414063 167.19921875 55.04296875 C170.05557269 64.26889244 170.31237316 73.29040021 170.3203125 82.9140625 C170.32208496 84.18121094 170.32385742 85.44835937 170.32568359 86.75390625 C170.19155114 98.03872027 168.85041653 108.47052858 164.8203125 119.0390625 C164.36180908 120.25432617 164.36180908 120.25432617 163.89404297 121.49414062 C156.6399172 140.1087783 144.25419936 153.65501168 130.33496094 167.59667969 C128.98178008 168.95913871 127.6289875 170.32198346 126.27655029 171.68518066 C122.63310436 175.35463446 118.98321166 179.01760501 115.33121014 182.67854214 C113.04824526 184.96739636 110.76644746 187.25740796 108.48499298 189.54776764 C101.34070844 196.71931374 94.19249779 203.88691123 87.0384481 211.04871631 C78.78752089 219.30863967 70.54990652 227.5815476 62.32338691 235.86577868 C55.95156988 242.28074036 49.56835558 248.68421193 43.17626977 255.07897687 C39.36219575 258.89514965 35.55316596 262.71605618 31.75591278 266.54897308 C28.19351657 270.1441858 24.6172492 273.7249806 21.02960968 277.29499817 C19.71381335 278.609247 18.40316679 279.92867426 17.09802246 281.25350189 C15.32050729 283.05625104 13.52564368 284.83968336 11.72503662 286.61932373 C10.95066525 287.41786431 10.95066525 287.41786431 10.16065001 288.23253703 C7.95089072 290.38226102 6.58694001 291.62561287 3.45005798 291.813591 C0.04333153 290.25010714 -2.31829706 287.95252339 -4.91033936 285.31634521 C-5.7647684 284.47127612 -5.7647684 284.47127612 -6.63645864 283.60913491 C-8.54428933 281.71726857 -10.43749193 279.81141258 -12.33105469 277.90527344 C-13.69565422 276.54609394 -15.06110327 275.18776688 -16.42733765 273.83023071 C-20.13942819 270.13640405 -23.83871824 266.42999939 -27.53534603 262.72070599 C-31.41156083 258.83436307 -35.29752758 254.95779113 -39.1819458 251.07965088 C-45.71250125 244.5563793 -52.23456586 238.02470729 -58.75195312 231.48828125 C-66.26577463 223.95276263 -73.79379836 216.43166362 -81.32950473 208.91803527 C-87.8092914 202.45646875 -94.28116434 195.98705355 -100.746629 189.51115632 C-104.60314708 185.64843019 -108.46224916 181.78838974 -112.3285141 177.93541718 C-115.97214337 174.30343946 -119.605665 170.66163036 -123.23198318 167.01237106 C-124.55671486 165.68239852 -125.88477234 164.35572809 -127.21657181 163.0328331 C-137.14807612 153.16156748 -145.84036844 143.04330789 -151.9296875 130.2890625 C-152.46335937 129.18820313 -152.99703125 128.08734375 -153.546875 126.953125 C-154.04445313 125.86773437 -154.54203125 124.78234375 -155.0546875 123.6640625 C-155.82619141 121.99537109 -155.82619141 121.99537109 -156.61328125 120.29296875 C-165.2841177 98.4631393 -165.01677651 71.56645566 -157.0546875 49.6640625 C-156.40306641 47.81167969 -156.40306641 47.81167969 -155.73828125 45.921875 C-146.25239319 21.65313575 -126.08171071 0.48170002 -102.28125 -10.0625 C-69.69630439 -23.79596731 -28.83808347 -22.05265207 0 0 Z M-132.015625 19.1875 C-150.93520899 40.25839487 -157.61195571 66.26368218 -156.23486328 94.13623047 C-154.24247935 122.08899912 -137.86271273 143.19725276 -118.75390625 162.19189453 C-117.42226381 163.52297177 -116.0910637 164.85449166 -114.76026917 166.18641663 C-111.17234481 169.77491123 -107.57831881 173.35723636 -103.98310852 176.93842936 C-100.21723108 180.69174439 -96.45707405 184.45078164 -92.69628906 188.209198 C-85.58549739 195.31379103 -78.46962613 202.41327344 -71.35188484 209.51090324 C-63.24389242 217.59648621 -55.14162614 225.68779686 -47.03981972 233.77957749 C-30.38444225 250.41408958 -13.72193902 267.04144844 2.9453125 283.6640625 C6.89642321 282.06446811 9.56763161 279.32986986 12.52212524 276.36140442 C13.07385041 275.81491594 13.62557557 275.26842745 14.19401968 274.70537871 C16.04250553 272.87190014 17.88376733 271.03133641 19.72509766 269.19067383 C21.04895514 267.87443799 22.37321445 266.55860618 23.69784546 265.2431488 C27.29822137 261.66474013 30.89198292 258.07975972 34.48392916 254.49289155 C36.73234053 252.24812492 38.98204451 250.00466202 41.23218918 247.76163292 C49.09461164 239.92372477 56.9512773 232.08009287 64.80322266 224.23168945 C72.09962869 216.93890732 79.40902089 209.65932322 86.72456896 202.38574773 C93.01820233 196.126949 99.30203936 189.85842357 105.57862699 183.58253115 C109.32106636 179.84088093 113.06728806 176.10322821 116.82362747 172.37552834 C120.3658935 168.85966466 123.89569373 165.33172515 127.4168129 161.79468727 C128.70152257 160.50817989 129.9904025 159.22581922 131.28403473 157.94828415 C143.65596167 145.72079595 152.80865222 133.03528578 158.9453125 116.6640625 C159.26113281 115.86613281 159.57695312 115.06820312 159.90234375 114.24609375 C167.70300529 93.14972338 165.72184264 66.08210503 156.9453125 45.6640625 C152.4414427 36.20862212 146.99463904 27.43507512 139.9453125 19.6640625 C139.14738281 18.77332031 138.34945313 17.88257813 137.52734375 16.96484375 C121.05915908 -0.47635036 97.62430964 -11.76484031 73.48828125 -12.57421875 C48.79201818 -13.00851152 29.09051051 -7.86854303 8.9453125 6.6640625 C5.9453125 8.6640625 5.9453125 8.6640625 3.0625 8.515625 C-0.40891836 7.56729267 -2.17172171 6.32121311 -4.9296875 4.0390625 C-43.89542433 -25.46281152 -100.01994947 -14.82237151 -132.015625 19.1875 Z " fill="#F6FBFA" transform="translate(252.0546875,119.3359375)"/>
<path d="M0 0 C0.90298828 -0.02900391 1.80597656 -0.05800781 2.73632812 -0.08789062 C7.06892182 -0.12927469 9.5020709 -0.10990548 13.26171875 2.20703125 C16.59913719 5.85585181 16.39270303 8.99223359 16.50390625 13.7265625 C16.52468735 14.45620209 16.54546844 15.18584167 16.56687927 15.93759155 C16.63231917 18.27079763 16.69123368 20.60411721 16.75 22.9375 C16.79319053 24.51824095 16.83680499 26.09897039 16.88085938 27.6796875 C16.98799481 31.55717504 17.08927782 35.43477685 17.1875 39.3125 C18.13069092 39.32708252 19.07388184 39.34166504 20.0456543 39.35668945 C23.55908661 39.41789606 27.07175446 39.49207508 30.5847168 39.57495117 C32.10251621 39.60811916 33.62043656 39.63617632 35.13842773 39.65893555 C37.32588019 39.69263278 39.51223264 39.74495204 41.69921875 39.80078125 C43.01365967 39.82696533 44.32810059 39.85314941 45.68237305 39.88012695 C49.36924877 40.33491952 51.2632412 41.06808586 54.1875 43.3125 C56.25140941 46.40836412 56.44263177 47.10998452 56.453125 50.62109375 C56.45699219 51.86536133 56.45699219 51.86536133 56.4609375 53.13476562 C56.45320313 53.99779297 56.44546875 54.86082031 56.4375 55.75 C56.44910156 57.03874023 56.44910156 57.03874023 56.4609375 58.35351562 C56.45835937 59.18431641 56.45578125 60.01511719 56.453125 60.87109375 C56.45086914 61.62704834 56.44861328 62.38300293 56.44628906 63.16186523 C56.14765795 65.6436025 55.52385745 67.2040311 54.1875 69.3125 C50.58297841 71.7155144 47.8810227 71.64150999 43.7109375 71.69140625 C42.98508453 71.70840073 42.25923157 71.7253952 41.51138306 71.74290466 C39.1951768 71.79599951 36.87898848 71.83632781 34.5625 71.875 C32.23895998 71.91889016 29.91556049 71.96553274 27.5921936 72.01780701 C26.14664257 72.04983093 24.70096677 72.07670012 23.25521851 72.09803772 C19.93660909 71.88325625 19.93660909 71.88325625 17.1875 73.3125 C17.08973111 75.60646895 17.05543112 77.90318324 17.046875 80.19921875 C17.02853508 81.62696893 17.00896369 83.05470371 16.98828125 84.48242188 C16.9593963 86.73618245 16.9375024 88.98896271 16.93701172 91.24291992 C16.93365891 93.41673999 16.89899451 95.58829471 16.859375 97.76171875 C16.8500293 99.06455811 16.84068359 100.36739746 16.83105469 101.7097168 C15.9962338 106.38325696 14.50588452 107.98439242 11.1875 111.3125 C7.83381427 112.98934287 4.12160362 112.62337794 0.4375 112.6875 C-0.36171875 112.72488281 -1.1609375 112.76226562 -1.984375 112.80078125 C-6.23025822 112.8636315 -8.96473031 112.64857873 -12.328125 109.9140625 C-16.05280442 106.01369066 -15.99160939 103.31752945 -16.09375 98.15234375 C-16.11215942 97.44727188 -16.13056885 96.74220001 -16.14953613 96.01576233 C-16.22832102 92.99398147 -16.29610015 89.9719767 -16.36474609 86.94995117 C-16.41635884 84.74646592 -16.47364275 82.54317908 -16.53125 80.33984375 C-16.54482544 79.65131821 -16.55840088 78.96279266 -16.5723877 78.25340271 C-16.38899 75.00092242 -16.38899 75.00092242 -17.8125 72.3125 C-20.21204161 72.20196851 -22.58767888 72.15091618 -24.98828125 72.13671875 C-26.47071724 72.11351479 -27.95313915 72.08939722 -29.43554688 72.06445312 C-31.77931033 72.0293617 -34.12255881 72.000014 -36.46655273 71.98657227 C-38.7244357 71.97107956 -40.98080019 71.93085817 -43.23828125 71.88671875 C-43.93633377 71.88862717 -44.63438629 71.89053558 -45.35359192 71.89250183 C-48.75973224 71.80702665 -50.51871981 71.54535241 -53.22338867 69.40161133 C-56.50282378 65.09033061 -56.06644596 61.25034588 -56.125 56 C-56.15400391 55.14470703 -56.18300781 54.28941406 -56.21289062 53.40820312 C-56.25538075 49.18860668 -56.19524023 46.92725183 -53.91796875 43.26953125 C-50.28145593 39.88939596 -47.14711135 40.10763392 -42.3984375 39.99609375 C-41.66879791 39.97531265 -40.93915833 39.95453156 -40.18740845 39.93312073 C-37.85420237 39.86768083 -35.52088279 39.80876632 -33.1875 39.75 C-31.60675905 39.70680947 -30.02602961 39.66319501 -28.4453125 39.61914062 C-24.56782496 39.51200519 -20.69022315 39.41072218 -16.8125 39.3125 C-16.8031543 38.33901611 -16.79380859 37.36553223 -16.78417969 36.36254883 C-16.74418908 32.7372528 -16.67840675 29.11279737 -16.60498047 25.48803711 C-16.57682306 23.92174103 -16.55558247 22.35530425 -16.54150391 20.78881836 C-16.52000033 18.53165934 -16.47331811 16.27618261 -16.421875 14.01953125 C-16.42064636 13.32350296 -16.41941772 12.62747467 -16.41815186 11.91035461 C-16.27547634 7.13265595 -15.18718841 4.67731859 -11.8125 1.3125 C-8.19296959 -0.49726521 -3.98581702 0.04213337 0 0 Z " fill="#4CBD9A" transform="translate(255.8125,187.6875)"/>
<path d="M0 0 C0.68006104 0.30752197 1.36012207 0.61504395 2.06079102 0.93188477 C23.26614695 10.76229826 37.46909946 27.04828203 45.73193359 48.73339844 C52.31689936 67.67806505 50.51081872 88.86651974 42.16796875 106.91015625 C38.38412883 114.59060267 33.72210996 121.43509728 28 127.8125 C27.48308594 128.42222656 26.96617187 129.03195312 26.43359375 129.66015625 C18.1147733 138.81294367 6.41443377 144.57674142 -5 148.8125 C-5.84046875 149.16183594 -6.6809375 149.51117188 -7.546875 149.87109375 C-23.59532095 156.02981266 -43.53860159 153.67995948 -59.125 147.5625 C-80.28181436 138.0784108 -96.36144988 122.83706564 -104.73535156 100.88476562 C-111.87845446 81.0647726 -111.09879423 59.82721899 -102.36621094 40.671875 C-92.35170373 19.99167095 -75.84797639 5.12520066 -54.1640625 -2.63671875 C-37.195268 -7.62239548 -16.19051094 -7.48133324 0 0 Z M-87.125 27.41015625 C-100.40013958 44.41892884 -104.54367991 62.65761956 -103 83.8125 C-100.87159521 100.75963708 -92.08712376 115.22235049 -80 126.8125 C-79.29746094 127.49957031 -78.59492188 128.18664062 -77.87109375 128.89453125 C-64.27079306 141.50571917 -46.21613601 147.53276351 -27.828125 147.09765625 C-6.09387451 145.47867637 12.21508785 136.6465827 26.65869141 120.41552734 C40.40678176 103.98488278 44.50546365 83.60917985 43 62.8125 C40.56458376 43.23751466 28.09934528 25.81809564 13 13.8125 C-18.79976824 -9.27644063 -62.36010964 -1.79843419 -87.125 27.41015625 Z " fill="#F7FCFA" transform="translate(286,170.1875)"/>
<path d="M0 0 C0.90298828 -0.02900391 1.80597656 -0.05800781 2.73632812 -0.08789062 C7.06892182 -0.12927469 9.5020709 -0.10990548 13.26171875 2.20703125 C16.59913719 5.85585181 16.39270303 8.99223359 16.50390625 13.7265625 C16.52468735 14.45620209 16.54546844 15.18584167 16.56687927 15.93759155 C16.63231917 18.27079763 16.69123368 20.60411721 16.75 22.9375 C16.79319053 24.51824095 16.83680499 26.09897039 16.88085938 27.6796875 C16.98799481 31.55717504 17.08927782 35.43477685 17.1875 39.3125 C18.13069092 39.32708252 19.07388184 39.34166504 20.0456543 39.35668945 C23.55908661 39.41789606 27.07175446 39.49207508 30.5847168 39.57495117 C32.10251621 39.60811916 33.62043656 39.63617632 35.13842773 39.65893555 C37.32588019 39.69263278 39.51223264 39.74495204 41.69921875 39.80078125 C43.01365967 39.82696533 44.32810059 39.85314941 45.68237305 39.88012695 C49.36924877 40.33491952 51.2632412 41.06808586 54.1875 43.3125 C56.25140941 46.40836412 56.44263177 47.10998452 56.453125 50.62109375 C56.45699219 51.86536133 56.45699219 51.86536133 56.4609375 53.13476562 C56.45320313 53.99779297 56.44546875 54.86082031 56.4375 55.75 C56.44910156 57.03874023 56.44910156 57.03874023 56.4609375 58.35351562 C56.45835937 59.18431641 56.45578125 60.01511719 56.453125 60.87109375 C56.45086914 61.62704834 56.44861328 62.38300293 56.44628906 63.16186523 C56.14765795 65.6436025 55.52385745 67.2040311 54.1875 69.3125 C50.58297841 71.7155144 47.8810227 71.64150999 43.7109375 71.69140625 C42.98508453 71.70840073 42.25923157 71.7253952 41.51138306 71.74290466 C39.1951768 71.79599951 36.87898848 71.83632781 34.5625 71.875 C32.23895998 71.91889016 29.91556049 71.96553274 27.5921936 72.01780701 C26.14664257 72.04983093 24.70096677 72.07670012 23.25521851 72.09803772 C19.93660909 71.88325625 19.93660909 71.88325625 17.1875 73.3125 C17.08973111 75.60646895 17.05543112 77.90318324 17.046875 80.19921875 C17.02853508 81.62696893 17.00896369 83.05470371 16.98828125 84.48242188 C16.9593963 86.73618245 16.9375024 88.98896271 16.93701172 91.24291992 C16.93365891 93.41673999 16.89899451 95.58829471 16.859375 97.76171875 C16.8500293 99.06455811 16.84068359 100.36739746 16.83105469 101.7097168 C15.9962338 106.38325696 14.50588452 107.98439242 11.1875 111.3125 C7.83381427 112.98934287 4.12160362 112.62337794 0.4375 112.6875 C-0.36171875 112.72488281 -1.1609375 112.76226562 -1.984375 112.80078125 C-6.23025822 112.8636315 -8.96473031 112.64857873 -12.328125 109.9140625 C-16.05280442 106.01369066 -15.99160939 103.31752945 -16.09375 98.15234375 C-16.11215942 97.44727188 -16.13056885 96.74220001 -16.14953613 96.01576233 C-16.22832102 92.99398147 -16.29610015 89.9719767 -16.36474609 86.94995117 C-16.41635884 84.74646592 -16.47364275 82.54317908 -16.53125 80.33984375 C-16.54482544 79.65131821 -16.55840088 78.96279266 -16.5723877 78.25340271 C-16.38899 75.00092242 -16.38899 75.00092242 -17.8125 72.3125 C-20.21204161 72.20196851 -22.58767888 72.15091618 -24.98828125 72.13671875 C-26.47071724 72.11351479 -27.95313915 72.08939722 -29.43554688 72.06445312 C-31.77931033 72.0293617 -34.12255881 72.000014 -36.46655273 71.98657227 C-38.7244357 71.97107956 -40.98080019 71.93085817 -43.23828125 71.88671875 C-43.93633377 71.88862717 -44.63438629 71.89053558 -45.35359192 71.89250183 C-48.75973224 71.80702665 -50.51871981 71.54535241 -53.22338867 69.40161133 C-56.50282378 65.09033061 -56.06644596 61.25034588 -56.125 56 C-56.15400391 55.14470703 -56.18300781 54.28941406 -56.21289062 53.40820312 C-56.25538075 49.18860668 -56.19524023 46.92725183 -53.91796875 43.26953125 C-50.28145593 39.88939596 -47.14711135 40.10763392 -42.3984375 39.99609375 C-41.66879791 39.97531265 -40.93915833 39.95453156 -40.18740845 39.93312073 C-37.85420237 39.86768083 -35.52088279 39.80876632 -33.1875 39.75 C-31.60675905 39.70680947 -30.02602961 39.66319501 -28.4453125 39.61914062 C-24.56782496 39.51200519 -20.69022315 39.41072218 -16.8125 39.3125 C-16.8031543 38.33901611 -16.79380859 37.36553223 -16.78417969 36.36254883 C-16.74418908 32.7372528 -16.67840675 29.11279737 -16.60498047 25.48803711 C-16.57682306 23.92174103 -16.55558247 22.35530425 -16.54150391 20.78881836 C-16.52000033 18.53165934 -16.47331811 16.27618261 -16.421875 14.01953125 C-16.42064636 13.32350296 -16.41941772 12.62747467 -16.41815186 11.91035461 C-16.27547634 7.13265595 -15.18718841 4.67731859 -11.8125 1.3125 C-8.19296959 -0.49726521 -3.98581702 0.04213337 0 0 Z M-9.8125 8.3125 C-10.02127814 10.78232095 -10.1135595 13.14927373 -10.12109375 15.62109375 C-10.14625185 17.10482167 -10.1716499 18.58854554 -10.19726562 20.07226562 C-10.22602788 22.41380789 -10.25004229 24.75527981 -10.26879883 27.09692383 C-10.29043446 29.35535101 -10.32986917 31.61295173 -10.37109375 33.87109375 C-10.37120956 34.5711705 -10.37132538 35.27124725 -10.3714447 35.99253845 C-10.47048622 40.84856381 -10.47048622 40.84856381 -12.21508789 43.21508789 C-15.80099419 45.67858305 -18.60749053 45.47994815 -22.9375 45.55859375 C-24.38021466 45.59152088 -25.82292284 45.62473271 -27.265625 45.65820312 C-29.54357613 45.70570146 -31.82149889 45.75015466 -34.09960938 45.78930664 C-36.29584677 45.82893193 -38.49155317 45.8804858 -40.6875 45.93359375 C-42.00492188 45.9586499 -43.32234375 45.98370605 -44.6796875 46.00952148 C-47.91078724 45.98695037 -47.91078724 45.98695037 -49.8125 48.3125 C-49.98420903 51.03947223 -50.0449568 53.65156468 -50 56.375 C-49.99935547 57.12072266 -49.99871094 57.86644531 -49.99804688 58.63476562 C-50.30072531 62.27267633 -50.30072531 62.27267633 -48.8125 65.3125 C-46.50738136 65.4348387 -44.19877828 65.49233877 -41.890625 65.5234375 C-40.45832219 65.55152065 -39.02603068 65.5801852 -37.59375 65.609375 C-35.33138519 65.65054455 -33.06922807 65.68742136 -30.80664062 65.71386719 C-28.62585494 65.74158094 -26.44603518 65.78746653 -24.265625 65.8359375 C-22.95754883 65.85575684 -21.64947266 65.87557617 -20.30175781 65.89599609 C-16.35004035 66.36770264 -13.64750736 67.47749264 -10.8125 70.3125 C-10.67725188 72.80802759 -10.60200741 75.27985306 -10.56640625 77.77734375 C-10.53347154 79.3144589 -10.50025983 80.85156813 -10.46679688 82.38867188 C-10.41932615 84.82246874 -10.37489947 87.25624097 -10.33569336 89.69018555 C-10.29606602 92.03199496 -10.2445018 94.37330651 -10.19140625 96.71484375 C-10.1829921 97.44509262 -10.17457794 98.17534149 -10.16590881 98.92771912 C-10.18849139 103.07449091 -10.18849139 103.07449091 -7.8125 106.3125 C-5.10327199 106.51102102 -2.51946821 106.59089477 0.1875 106.5625 C0.92484375 106.57023437 1.6621875 106.57796875 2.421875 106.5859375 C6.77171903 106.72258865 6.77171903 106.72258865 10.1875 104.3125 C10.3720227 101.78184923 10.4402957 99.35113114 10.42578125 96.8203125 C10.44120187 95.29556403 10.45750557 93.77082427 10.47460938 92.24609375 C10.49106389 89.84078767 10.49999594 87.43611944 10.49291992 85.03076172 C10.49029934 82.70987694 10.51842256 80.39093747 10.55078125 78.0703125 C10.54057449 77.35352325 10.53036774 76.63673401 10.51985168 75.89822388 C10.58914259 72.35716519 10.94475551 70.60103774 13.24780273 67.86352539 C16.84510419 65.96553883 19.88442094 65.72733311 23.859375 65.73828125 C24.58239807 65.72411667 25.30542114 65.70995209 26.050354 65.69535828 C28.34622311 65.65361266 30.64130547 65.63824079 32.9375 65.625 C35.24761299 65.5959616 37.55752674 65.56148774 39.86749268 65.52250671 C41.30193041 65.49998001 42.73649225 65.48418452 44.17108154 65.47566223 C47.46175623 65.72388643 47.46175623 65.72388643 50.1875 64.3125 C50.31408222 61.65427343 50.37270214 59.03362576 50.375 56.375 C50.38724609 55.63314453 50.39949219 54.89128906 50.41210938 54.12695312 C50.41738478 52.18736371 50.30938902 50.2482629 50.1875 48.3125 C47.73586006 45.86086006 46.37836006 46.07199756 43.03213501 46.03604126 C41.98368912 46.03753677 41.98368912 46.03753677 40.9140625 46.0390625 C39.43488831 46.01877037 37.9557217 45.99791953 36.4765625 45.9765625 C34.14381524 45.95397168 31.8113672 45.93749716 29.47851562 45.93164062 C27.22731363 45.92210971 24.97746162 45.88832456 22.7265625 45.8515625 C22.03164703 45.85660797 21.33673157 45.86165344 20.62075806 45.86685181 C17.44614937 45.80246298 15.4416494 45.47541628 12.75 43.75 C10.64287582 40.46288628 10.62096259 37.55757194 10.6484375 33.7734375 C10.63664459 33.05137115 10.62485168 32.32930481 10.61270142 31.58535767 C10.57747744 29.28585097 10.56827344 26.98725436 10.5625 24.6875 C10.54616823 22.38087712 10.52417709 20.07466082 10.49087524 17.76821899 C10.47121183 16.33487445 10.46191401 14.90134295 10.46395874 13.46786499 C10.53357119 9.44288994 10.53357119 9.44288994 8.1875 6.3125 C5.47827199 6.11397898 2.89446821 6.03410523 0.1875 6.0625 C-0.54984375 6.05476562 -1.2871875 6.04703125 -2.046875 6.0390625 C-6.39671903 5.90241135 -6.39671903 5.90241135 -9.8125 8.3125 Z " fill="#F7FCFA" transform="translate(255.8125,187.6875)"/>
</svg>
